<?xml version="1.0" standalone="no"?>
<!DOCTYPE svg PUBLIC "-//W3C//DTD SVG 20010904//EN"
 "http://www.w3.org/TR/2001/REC-SVG-20010904/DTD/svg10.dtd">
<svg version="1.0" xmlns="http://www.w3.org/2000/svg"
 width="1000.000000pt" height="1000.000000pt" viewBox="0 0 1000.000000 1000.000000"
 preserveAspectRatio="xMidYMid meet">
<metadata>
Created by potrace 1.15, written by Peter Selinger 2001-2017
</metadata>
<g transform="translate(0.000000,1000.000000) scale(0.100000,-0.100000)"
fill="#000000" stroke="none">
<path d="M665 9628 c-38 -21 -64 -60 -76 -116 -21 -101 3 -554 30 -572 4 -3
11 -34 15 -70 11 -102 46 -294 55 -300 4 -3 11 -27 15 -55 8 -62 47 -218 56
-225 9 -7 60 -230 60 -262 0 -14 4 -28 8 -30 8 -3 62 -214 62 -243 0 -8 4 -15
8 -15 5 0 21 -55 37 -122 15 -68 34 -127 41 -133 12 -9 22 -45 52 -185 3 -14
11 -28 18 -33 7 -4 20 -42 29 -85 10 -42 23 -82 31 -88 7 -6 21 -42 29 -80 14
-64 32 -112 46 -124 3 -3 11 -32 19 -65 7 -33 17 -64 21 -70 3 -5 10 -25 14
-42 3 -18 10 -33 15 -33 4 0 11 -22 15 -50 4 -27 11 -52 15 -55 5 -3 14 -30
21 -60 7 -30 16 -55 21 -55 4 0 8 -8 8 -17 1 -30 48 -157 59 -161 6 -2 11 -14
11 -26 0 -12 6 -30 14 -41 7 -11 16 -36 20 -57 4 -20 13 -38 20 -41 8 -3 17
-25 21 -49 4 -24 14 -52 21 -63 8 -11 14 -28 14 -38 0 -10 6 -24 13 -32 8 -7
24 -45 37 -84 12 -39 26 -71 31 -71 5 0 9 -9 9 -19 0 -11 4 -22 9 -25 5 -4 12
-24 16 -46 4 -22 11 -42 16 -46 5 -3 9 -14 9 -25 0 -10 4 -19 9 -19 5 0 19
-32 31 -71 13 -39 29 -77 37 -84 7 -8 13 -21 13 -30 0 -9 6 -29 14 -43 8 -15
17 -39 20 -54 3 -15 13 -33 21 -42 8 -8 15 -18 15 -23 0 -11 52 -147 59 -153
9 -7 33 -71 38 -102 3 -16 9 -28 14 -28 5 0 9 -7 9 -15 0 -8 5 -15 10 -15 6 0
10 -9 10 -19 0 -11 5 -23 10 -26 6 -3 10 -14 10 -23 0 -9 7 -30 15 -46 8 -15
15 -35 15 -43 0 -7 9 -23 20 -35 11 -12 20 -31 20 -42 0 -12 7 -34 15 -50 8
-15 15 -35 15 -42 0 -8 3 -14 8 -14 4 0 21 -35 37 -77 16 -43 33 -81 38 -84 5
-3 19 -37 32 -74 14 -38 28 -71 33 -74 5 -3 17 -30 27 -60 14 -45 16 -72 11
-155 -10 -138 -25 -240 -36 -244 -6 -2 -10 -18 -10 -36 0 -18 -11 -70 -25
-117 -13 -46 -25 -91 -25 -101 0 -9 -4 -18 -10 -20 -5 -1 -14 -27 -20 -56 -15
-82 -40 -162 -51 -162 -12 0 -49 -84 -49 -110 0 -10 -7 -25 -15 -34 -20 -20
-20 -96 0 -96 8 0 15 -4 15 -10 0 -5 7 -10 15 -10 8 0 15 5 15 10 0 6 11 10
24 10 36 0 66 35 102 120 15 33 30 60 35 60 4 0 20 26 35 58 15 31 30 59 34
62 4 3 20 50 36 105 15 55 31 102 35 105 5 3 19 50 32 105 13 54 28 100 34
102 6 2 17 -13 23 -34 7 -21 16 -42 20 -48 4 -5 10 -22 14 -37 3 -16 10 -28
15 -28 5 0 12 -14 16 -30 4 -17 11 -30 16 -30 5 0 9 -9 9 -21 0 -19 16 -58 29
-69 13 -11 31 -51 31 -68 0 -10 7 -27 15 -38 8 -10 15 -27 15 -36 0 -10 9 -27
20 -38 11 -11 20 -29 20 -39 0 -11 5 -23 10 -26 6 -3 10 -16 10 -28 0 -13 9
-30 20 -40 11 -9 20 -23 20 -31 0 -7 7 -27 15 -42 8 -16 15 -37 15 -47 0 -10
6 -20 14 -23 8 -3 27 -41 42 -85 16 -43 34 -79 41 -79 7 0 13 -10 13 -23 0
-13 7 -32 15 -43 8 -10 15 -27 15 -37 0 -10 7 -20 15 -23 8 -4 15 -12 15 -20
0 -8 4 -22 10 -32 5 -9 17 -35 26 -57 10 -22 24 -44 31 -48 7 -4 13 -17 13
-27 0 -10 4 -21 9 -24 4 -3 11 -19 14 -35 3 -16 12 -35 19 -42 16 -16 48 -82
48 -98 0 -6 -18 -20 -40 -31 -23 -12 -43 -27 -47 -35 -3 -8 -9 -15 -15 -15 -5
0 -24 -11 -42 -25 -18 -14 -38 -25 -43 -25 -6 0 -13 -7 -16 -15 -4 -8 -24 -23
-45 -34 -22 -11 -42 -27 -45 -36 -4 -8 -12 -15 -19 -15 -8 0 -27 -12 -44 -27
-37 -33 -58 -47 -101 -70 -18 -9 -33 -22 -33 -29 0 -7 -12 -16 -28 -22 -15 -5
-39 -21 -52 -35 -14 -15 -30 -27 -37 -27 -6 0 -23 -13 -36 -30 -14 -16 -30
-30 -35 -30 -5 0 -17 -9 -27 -20 -10 -11 -24 -20 -32 -20 -7 0 -16 -6 -19 -14
-3 -8 -24 -27 -47 -42 -23 -15 -48 -36 -55 -46 -7 -10 -19 -18 -27 -18 -8 0
-24 -14 -37 -30 -12 -17 -26 -30 -30 -30 -11 0 -61 -36 -100 -72 -17 -16 -35
-28 -42 -28 -6 0 -22 -13 -36 -30 -14 -16 -30 -30 -36 -30 -5 0 -21 -10 -34
-22 -26 -24 -88 -68 -95 -68 -3 0 -13 -8 -23 -18 -45 -42 -116 -97 -143 -110
-16 -8 -29 -21 -29 -28 0 -8 -6 -14 -12 -14 -17 -1 -58 -35 -58 -49 0 -6 -5
-11 -12 -11 -6 0 -26 -11 -44 -25 -18 -14 -37 -25 -43 -25 -6 0 -11 -7 -11
-15 0 -8 -4 -15 -9 -15 -5 0 -28 -18 -52 -40 -24 -22 -48 -40 -52 -40 -5 0
-24 -15 -42 -32 -46 -46 -134 -121 -152 -132 -9 -5 -29 -24 -45 -42 -17 -19
-33 -34 -37 -34 -8 0 -74 -60 -162 -145 -26 -25 -50 -45 -53 -45 -11 0 -36
-27 -36 -38 0 -5 -11 -14 -25 -20 -14 -7 -29 -20 -32 -29 -9 -22 -28 -43 -41
-43 -12 0 -32 -54 -32 -88 0 -38 35 -62 91 -62 46 0 128 24 139 41 3 5 31 20
63 33 31 14 57 30 57 35 0 6 18 16 40 22 22 7 40 16 40 21 0 4 9 8 19 8 11 0
26 6 33 13 7 7 38 26 68 43 30 16 57 32 58 37 2 4 10 7 18 7 8 0 14 5 14 10 0
6 7 10 16 10 16 0 74 29 84 41 8 11 102 59 115 59 7 0 15 7 18 15 3 7 29 24
56 36 28 12 51 25 51 30 0 4 27 20 60 36 33 15 60 31 60 35 0 4 22 19 50 33
27 14 50 29 50 34 0 5 14 12 30 16 17 4 30 11 30 16 0 5 8 9 18 9 10 0 27 8
38 18 10 9 44 30 74 46 30 17 61 35 68 42 6 7 33 23 59 36 26 13 55 31 65 40
10 10 27 18 38 18 11 0 20 5 20 10 0 6 7 10 15 10 8 0 19 9 25 20 6 11 16 20
22 20 17 0 98 41 98 49 0 4 26 21 58 37 31 16 65 36 75 45 10 9 36 24 57 34
22 10 40 22 40 26 0 5 25 20 55 34 30 15 55 30 55 34 0 4 18 16 40 26 21 10
47 25 57 34 10 9 44 29 76 45 31 16 57 32 57 36 0 4 26 21 58 36 31 16 58 32
60 36 2 4 27 19 57 32 29 14 55 29 57 33 1 5 28 20 58 35 44 21 56 24 58 12 2
-8 8 -14 13 -14 5 0 9 -9 9 -20 0 -11 4 -20 10 -20 5 0 22 -27 37 -60 14 -33
30 -60 35 -60 4 0 8 -9 8 -20 0 -11 4 -20 8 -20 5 0 15 -18 22 -40 8 -23 18
-44 24 -48 14 -9 46 -70 46 -87 0 -7 11 -23 25 -36 13 -13 25 -31 25 -39 0 -8
9 -26 20 -40 11 -14 20 -31 20 -37 0 -7 4 -13 8 -13 5 0 21 -28 36 -61 15 -34
34 -68 42 -76 8 -8 14 -21 14 -29 0 -8 5 -14 10 -14 6 0 10 -8 10 -18 0 -10 9
-28 20 -40 11 -12 20 -25 20 -29 0 -4 9 -19 20 -33 11 -14 20 -33 20 -42 0
-10 6 -18 13 -18 7 0 19 -16 26 -35 6 -19 23 -43 37 -54 24 -19 33 -51 13 -51
-10 0 -30 -19 -249 -230 -58 -56 -120 -113 -138 -126 -18 -14 -61 -54 -96 -90
-35 -35 -68 -64 -75 -64 -6 0 -11 -7 -11 -15 0 -8 -4 -15 -8 -15 -12 0 -142
-127 -142 -138 0 -6 8 -12 18 -14 10 -2 45 23 92 69 41 39 115 110 164 157 49
47 91 86 94 86 2 0 42 37 89 83 105 102 110 107 117 107 2 0 33 29 68 65 34
36 68 65 74 65 6 0 18 10 26 22 l15 22 13 -24 c7 -14 24 -33 37 -43 12 -10 23
-23 23 -29 0 -6 21 -31 46 -55 39 -37 52 -43 88 -43 61 0 73 14 79 93 6 68 -2
84 -30 56 -16 -16 -29 -5 -55 49 -13 26 -26 49 -31 50 -4 2 -14 17 -23 34 -15
28 -14 31 5 49 11 10 23 19 27 19 4 0 22 15 39 33 18 17 67 64 110 102 42 39
101 91 129 117 28 26 56 48 63 48 6 0 15 9 18 20 3 11 9 20 13 20 4 0 29 20
57 45 27 25 54 45 61 45 6 0 19 11 28 25 9 14 22 25 29 25 6 0 28 15 48 33 45
40 107 91 137 114 13 10 38 33 55 51 16 17 34 32 40 32 5 0 23 14 40 30 71 67
83 77 107 90 14 7 36 23 50 36 61 57 88 80 113 93 15 8 27 18 27 23 0 4 7 8
15 8 8 0 19 9 25 19 5 11 28 30 50 42 22 13 40 28 40 34 0 6 16 19 35 28 20 9
38 24 41 32 4 8 12 15 18 15 7 0 23 11 36 25 13 14 27 25 31 25 5 0 23 16 42
35 19 19 37 35 41 35 4 0 17 9 29 20 12 10 37 33 56 50 19 16 38 30 44 30 5 0
23 14 39 30 15 17 31 30 34 30 2 0 17 11 32 25 15 14 32 25 39 25 7 0 13 6 13
13 0 6 17 23 38 37 20 14 45 35 55 47 10 13 25 23 32 23 8 0 23 13 35 30 12
17 28 30 35 30 8 0 24 14 37 30 12 17 27 30 34 30 7 0 24 13 37 30 14 16 30
30 35 30 5 0 19 11 32 25 13 14 28 25 33 25 5 0 18 11 29 25 11 14 26 25 33
25 8 0 20 8 27 18 7 9 31 30 53 46 22 17 44 36 48 43 4 7 12 13 18 13 12 0 63
37 95 67 13 13 30 23 38 23 8 0 24 14 36 30 12 17 27 30 35 30 7 0 27 14 43
30 17 17 35 30 40 30 5 0 17 9 27 20 10 11 24 20 32 20 7 0 13 4 13 10 0 5 19
22 43 37 23 16 47 33 52 39 6 6 27 21 48 33 20 13 37 27 37 32 0 5 5 9 10 9 6
0 23 11 38 25 15 14 30 25 34 25 3 0 20 12 36 28 48 43 102 86 127 99 12 7 25
19 29 28 3 8 11 15 18 15 7 0 27 12 43 28 17 15 48 40 70 57 22 16 51 40 65
52 14 13 30 23 37 23 7 0 20 11 29 25 9 13 24 27 33 30 10 3 37 22 59 43 23
21 54 45 69 53 15 8 38 26 51 42 13 15 29 27 35 27 6 0 21 10 32 23 11 12 32
30 47 40 28 18 58 42 107 90 16 15 32 27 35 27 10 0 70 43 79 57 4 6 23 21 42
33 19 12 48 34 64 48 16 15 39 35 52 44 33 24 91 70 107 85 7 7 16 13 20 13 4
0 21 13 37 29 17 15 50 40 73 55 23 14 42 31 42 36 0 5 15 17 33 26 17 9 44
28 59 43 51 48 153 131 163 131 4 0 16 11 27 25 11 14 26 25 33 25 8 0 20 8
27 18 7 10 29 29 48 42 19 13 47 36 61 50 14 14 39 32 55 40 16 8 39 27 52 43
13 15 29 27 36 27 6 0 19 8 27 17 9 10 38 36 65 58 75 63 114 97 161 143 24
23 47 42 51 42 4 0 16 15 27 33 10 17 24 37 31 42 20 17 26 65 12 96 -13 29
-68 59 -107 59 -29 0 -151 -40 -151 -49 0 -5 -34 -21 -75 -36 -41 -15 -75 -30
-75 -34 0 -7 -52 -32 -107 -51 -17 -6 -34 -18 -37 -26 -3 -8 -10 -14 -16 -14
-20 0 -105 -42 -113 -56 -4 -8 -15 -14 -23 -14 -17 0 -97 -41 -102 -52 -5 -11
-101 -58 -118 -58 -8 0 -14 -6 -14 -12 0 -7 -25 -24 -54 -36 -30 -13 -57 -30
-60 -37 -2 -7 -18 -16 -35 -20 -17 -4 -31 -11 -31 -16 0 -5 -9 -9 -20 -9 -10
0 -27 -8 -37 -17 -10 -10 -40 -29 -68 -43 -27 -14 -54 -31 -58 -37 -4 -7 -13
-13 -19 -13 -18 0 -101 -44 -126 -68 -14 -12 -31 -22 -38 -22 -7 0 -25 -11
-40 -25 -15 -14 -35 -25 -45 -25 -11 0 -19 -4 -19 -9 0 -5 -13 -12 -30 -16
-16 -4 -33 -12 -37 -19 -5 -7 -33 -25 -63 -40 -30 -16 -57 -32 -60 -36 -3 -5
-29 -20 -58 -35 -28 -14 -52 -30 -52 -36 0 -5 -8 -9 -19 -9 -10 0 -24 -7 -31
-15 -7 -8 -20 -15 -29 -15 -10 0 -26 -8 -37 -18 -10 -10 -44 -31 -74 -47 -30
-17 -57 -33 -60 -36 -3 -4 -27 -19 -55 -34 -27 -16 -52 -31 -55 -35 -3 -4 -32
-19 -64 -33 -32 -15 -64 -33 -70 -41 -6 -7 -36 -23 -66 -36 -30 -12 -57 -26
-60 -29 -9 -12 -102 -61 -116 -61 -8 0 -14 -4 -14 -8 0 -5 -26 -22 -57 -37
-32 -16 -60 -32 -63 -35 -3 -3 -31 -18 -62 -34 -32 -16 -58 -32 -58 -37 0 -5
-9 -9 -20 -9 -11 0 -20 -4 -20 -9 0 -5 -13 -12 -29 -16 -15 -3 -37 -14 -47
-23 -11 -10 -44 -28 -74 -41 -30 -12 -60 -29 -65 -36 -6 -7 -35 -23 -65 -35
-30 -13 -60 -29 -65 -35 -9 -11 -72 -42 -117 -58 -10 -4 -18 -10 -18 -15 0 -5
-25 -20 -55 -33 -30 -13 -55 -30 -55 -36 0 -7 -5 -13 -12 -13 -15 0 -115 -48
-120 -57 -1 -5 -30 -21 -63 -37 -33 -16 -62 -32 -65 -35 -3 -3 -30 -19 -60
-36 -30 -16 -64 -37 -74 -47 -11 -10 -24 -18 -29 -18 -16 0 -81 -34 -101 -52
-11 -10 -24 -18 -29 -18 -12 0 -81 -32 -87 -41 -3 -4 -30 -20 -60 -35 -30 -15
-57 -30 -60 -33 -3 -4 -31 -19 -62 -34 -32 -15 -58 -32 -58 -37 0 -6 -8 -10
-17 -10 -10 0 -31 -9 -48 -20 -16 -11 -38 -20 -47 -20 -10 0 -18 -7 -18 -15 0
-8 -5 -15 -11 -15 -18 0 -119 -51 -119 -61 0 -5 -12 -12 -27 -15 -28 -7 -94
-43 -103 -55 -3 -4 -29 -19 -58 -34 -28 -14 -52 -30 -52 -36 0 -5 -6 -9 -12
-9 -18 0 -118 -52 -118 -61 0 -3 -29 -19 -65 -34 -36 -16 -65 -31 -65 -35 0
-4 -26 -20 -57 -36 -32 -16 -66 -36 -76 -45 -10 -9 -30 -19 -45 -22 -15 -3
-36 -14 -47 -24 -11 -11 -47 -32 -80 -47 -33 -16 -62 -32 -65 -35 -3 -4 -32
-20 -65 -36 -33 -17 -61 -33 -63 -37 -2 -3 -29 -19 -60 -34 -31 -15 -65 -35
-74 -43 -9 -9 -39 -25 -67 -36 -28 -11 -51 -23 -51 -27 0 -4 -24 -20 -53 -34
-28 -15 -55 -32 -60 -39 -4 -8 -21 -16 -37 -20 -17 -4 -30 -11 -30 -16 0 -5
-9 -9 -20 -9 -11 0 -28 -9 -37 -19 -19 -22 -43 -17 -43 9 0 11 -4 22 -10 25
-5 3 -10 14 -10 23 0 9 -7 30 -15 46 -8 15 -15 34 -15 41 0 7 -5 15 -11 17 -6
2 -20 26 -30 53 l-18 48 28 26 c46 42 82 71 88 71 2 0 19 11 37 25 18 14 38
25 43 25 6 0 13 7 16 15 4 8 24 23 47 35 22 11 40 25 40 30 0 8 18 20 80 52
14 7 31 21 38 30 7 10 27 25 45 34 17 9 37 22 44 29 7 7 29 23 50 36 21 13 46
31 57 41 10 9 33 24 51 32 18 9 35 22 38 30 3 8 24 22 46 32 23 10 41 23 41
29 0 6 17 19 38 28 21 9 47 25 58 36 11 10 40 31 64 46 24 15 48 31 54 36 16
14 86 59 91 59 2 0 19 13 37 30 18 16 38 30 45 30 7 0 17 9 22 19 6 10 24 24
40 29 16 6 38 19 49 30 11 11 41 32 66 47 25 15 46 30 46 35 0 4 15 15 34 24
19 9 44 27 57 41 13 13 28 25 32 25 8 0 67 39 77 51 3 3 26 18 53 33 26 15 47
31 47 35 0 4 25 20 55 36 30 15 55 31 55 35 0 4 17 15 38 26 20 10 46 27 57
37 28 25 94 67 105 67 6 0 10 4 10 9 0 6 23 22 50 37 28 15 50 31 50 35 0 4
27 20 60 36 33 15 60 33 60 39 0 6 18 19 41 29 22 10 45 27 50 37 5 10 16 18
25 18 13 0 70 34 84 51 3 3 26 18 53 33 26 15 47 32 47 36 0 4 12 13 28 19 38
16 74 37 81 49 3 5 25 19 48 31 23 11 46 27 50 33 4 7 28 24 53 37 25 13 53
32 62 41 9 10 37 27 62 40 25 12 46 26 46 31 0 5 4 9 10 9 8 0 71 38 96 59 6
5 30 21 55 36 24 16 46 31 49 35 3 3 27 17 53 29 27 13 51 29 54 37 2 7 25 22
49 34 25 11 47 27 50 35 4 8 10 15 15 15 11 0 86 48 113 73 11 9 25 17 30 17
6 0 24 12 39 26 15 14 48 34 72 45 24 11 50 25 57 32 21 20 97 67 108 67 5 0
10 4 10 8 0 5 24 21 54 35 29 15 56 33 60 42 3 8 10 15 16 15 10 0 69 38 80
51 3 4 29 19 58 35 28 15 52 31 52 36 0 4 17 16 38 27 20 11 52 33 71 50 19
17 40 31 47 31 6 0 22 11 35 25 13 14 39 33 57 41 17 9 32 23 32 30 0 8 8 14
18 14 9 0 28 9 42 20 14 11 31 20 38 20 7 0 15 7 18 15 14 36 50 42 157 28 56
-7 103 -17 105 -23 2 -6 42 -10 92 -10 69 0 89 3 94 15 3 8 12 15 21 15 11 0
15 11 15 39 0 34 -4 42 -32 55 -17 9 -39 16 -50 16 -10 0 -18 4 -18 9 0 4 -25
16 -55 26 -62 19 -62 22 -1 76 30 28 31 54 1 65 -19 8 -60 -2 -77 -19 -7 -7
-35 -23 -62 -36 -38 -17 -59 -21 -85 -16 -44 9 -138 23 -208 31 -29 4 -53 10
-53 14 0 5 -24 11 -52 15 -29 3 -75 10 -103 15 -27 5 -104 14 -169 20 -66 5
-122 13 -125 18 -3 4 -49 14 -101 20 -52 7 -144 19 -205 27 -60 8 -134 14
-162 15 -29 0 -53 4 -53 9 0 5 -24 11 -52 14 -29 3 -105 12 -168 21 -63 10
-140 20 -170 23 -30 3 -58 10 -61 16 -14 21 -259 39 -459 33 -107 -4 -205 -9
-217 -12 -26 -7 -30 7 -9 29 14 14 48 84 60 125 4 12 11 22 16 22 12 0 49 127
57 193 3 28 10 55 15 58 14 9 16 508 2 517 -7 4 -17 43 -24 87 -6 44 -18 93
-26 109 -8 16 -14 37 -14 48 0 10 -4 18 -10 18 -5 0 -10 5 -10 11 0 23 -55
128 -67 128 -7 1 -13 8 -13 17 0 9 -13 30 -30 46 -16 15 -30 32 -30 37 0 17
-110 106 -147 119 -21 7 -40 18 -45 25 -10 17 -220 17 -225 0 -3 -7 -13 -13
-22 -13 -43 0 -171 -91 -171 -121 0 -4 -13 -21 -29 -38 -19 -20 -31 -46 -35
-76 -4 -25 -11 -45 -15 -45 -21 0 -41 -139 -41 -277 0 -159 27 -505 40 -513 5
-3 21 -53 36 -110 14 -58 29 -107 33 -110 4 -3 20 -51 36 -107 16 -57 32 -103
37 -103 4 0 8 -8 8 -17 0 -10 6 -29 13 -43 7 -14 19 -47 27 -75 7 -27 17 -52
20 -55 4 -3 20 -48 36 -100 15 -52 31 -96 35 -98 4 -2 15 -34 25 -72 10 -38
28 -81 41 -96 13 -15 23 -35 23 -44 0 -9 7 -25 15 -36 24 -32 18 -44 -23 -44
-65 0 -272 -39 -272 -51 0 -5 -8 -9 -17 -9 -30 -1 -157 -48 -161 -59 -2 -6 -9
-11 -16 -11 -30 0 -148 -44 -153 -56 -3 -8 -11 -14 -17 -14 -18 0 -66 -24 -66
-32 0 -5 -9 -8 -20 -8 -11 0 -23 -7 -26 -15 -3 -8 -18 -21 -32 -28 -52 -26
-77 -42 -85 -55 -5 -7 -26 -20 -48 -28 -21 -9 -39 -21 -39 -28 0 -6 -18 -19
-40 -29 -21 -10 -42 -27 -45 -38 -4 -10 -11 -19 -17 -19 -13 0 -61 -37 -100
-77 -17 -18 -36 -33 -42 -33 -6 0 -24 -16 -39 -35 -15 -19 -34 -35 -41 -35 -7
0 -22 -13 -34 -30 -13 -16 -29 -30 -37 -30 -8 0 -15 -4 -15 -8 0 -14 -45 -62
-58 -62 -7 0 -12 -4 -12 -9 0 -5 -14 -23 -31 -40 -17 -17 -35 -31 -40 -31 -5
0 -9 -6 -9 -14 0 -7 -14 -23 -30 -36 -17 -13 -40 -38 -51 -57 -11 -18 -27 -33
-35 -33 -8 0 -14 -7 -14 -15 0 -8 -16 -27 -35 -42 -19 -15 -35 -33 -35 -38 0
-11 -32 -35 -62 -47 -17 -7 -18 2 -18 100 0 141 22 536 30 542 4 3 10 41 13
85 4 44 13 152 22 240 21 221 31 812 16 992 -13 158 -35 303 -49 312 -5 3 -12
20 -16 36 -20 83 -69 145 -127 163 -123 37 -318 10 -389 -55 -14 -13 -32 -25
-40 -28 -8 -3 -21 -18 -28 -34 -7 -16 -21 -39 -32 -51 -11 -12 -29 -48 -40
-79 -12 -30 -27 -59 -33 -63 -19 -12 -16 -210 3 -229 43 -43 96 -29 105 28 11
76 28 143 36 143 4 0 10 12 14 28 7 35 102 138 135 148 14 3 28 11 31 16 4 6
36 12 72 15 60 5 69 3 91 -18 17 -16 29 -44 37 -79 6 -30 15 -74 20 -97 5 -23
9 -58 9 -77 0 -20 5 -36 10 -36 7 0 10 -150 10 -430 0 -236 -4 -430 -8 -430
-4 0 -14 -64 -20 -142 -7 -79 -17 -183 -22 -233 -5 -49 -12 -161 -16 -247 -4
-87 -11 -158 -15 -158 -5 0 -9 -106 -9 -235 0 -136 4 -235 9 -235 5 0 12 -14
16 -31 9 -40 51 -65 125 -73 82 -10 209 24 233 62 4 6 21 19 37 27 17 9 30 20
30 25 0 14 33 50 45 50 6 0 19 16 29 35 10 19 27 37 37 40 11 4 19 11 19 16 0
12 49 59 61 59 5 0 9 6 9 14 0 7 10 20 23 29 12 8 53 44 90 81 38 36 82 74 98
83 16 10 29 23 29 30 0 8 8 16 18 20 9 3 29 19 43 35 14 15 29 28 34 28 4 0
21 14 37 30 15 17 31 30 34 30 3 0 12 6 19 13 28 25 44 37 49 37 2 0 18 14 36
30 18 17 38 30 46 30 7 0 17 6 21 13 4 8 22 20 38 28 49 25 76 43 101 67 14
13 38 28 54 34 17 5 30 14 30 18 0 5 33 21 73 36 39 16 74 31 77 34 7 8 110
48 143 56 15 3 27 10 27 14 0 5 39 21 88 36 48 16 89 31 92 34 10 13 131 41
149 35 12 -3 21 -19 25 -39 4 -19 13 -39 21 -46 8 -7 15 -21 15 -31 0 -9 6
-24 13 -31 15 -15 47 -81 47 -97 0 -6 9 -20 19 -30 11 -11 32 -41 46 -68 15
-26 31 -50 35 -53 4 -3 20 -25 35 -50 15 -25 34 -49 41 -53 8 -4 14 -13 14
-18 0 -46 137 -88 191 -59 25 14 16 57 -18 83 -13 10 -23 25 -23 33 0 8 -8 18
-17 21 -23 9 -40 29 -59 73 -8 19 -18 37 -22 40 -5 3 -18 25 -29 50 -12 25
-31 56 -42 69 -12 14 -28 49 -37 78 -8 29 -21 56 -28 60 -7 5 -22 28 -34 53
-17 36 -20 56 -15 97 l6 52 -33 3 c-29 3 -34 8 -48 51 -8 26 -20 47 -27 47 -6
0 -18 25 -25 55 -7 30 -21 63 -31 74 -10 10 -24 42 -33 70 l-15 51 39 10 c22
6 43 16 47 24 4 7 24 18 43 25 50 17 365 33 505 26 162 -9 378 -33 384 -44 4
-5 26 -11 51 -13 150 -16 416 -53 420 -58 3 -3 70 -14 150 -23 289 -34 335
-41 341 -49 3 -5 48 -13 100 -18 271 -25 401 -52 341 -70 -35 -11 -97 -45
-105 -58 -5 -8 -29 -22 -53 -32 -24 -11 -44 -24 -44 -29 0 -6 -15 -17 -34 -26
-18 -9 -42 -24 -52 -34 -11 -9 -42 -30 -69 -46 -28 -16 -54 -34 -60 -41 -5 -6
-28 -22 -50 -35 -22 -13 -47 -30 -55 -38 -8 -7 -29 -20 -46 -27 -18 -7 -38
-19 -46 -26 -7 -7 -39 -26 -71 -43 -31 -16 -57 -33 -57 -37 0 -4 -26 -20 -57
-35 -32 -15 -64 -33 -71 -40 -7 -7 -30 -22 -52 -34 -22 -13 -40 -26 -40 -31 0
-4 -15 -14 -32 -23 -41 -18 -62 -33 -102 -68 -17 -15 -35 -27 -41 -27 -6 0
-18 -9 -28 -20 -9 -11 -23 -20 -30 -20 -7 0 -26 -12 -43 -27 -16 -16 -56 -41
-87 -56 -31 -15 -57 -32 -57 -37 0 -4 -27 -21 -60 -37 -33 -15 -60 -33 -60
-40 0 -6 -13 -14 -29 -18 -16 -3 -42 -19 -57 -35 -16 -16 -34 -30 -40 -30 -6
0 -21 -9 -34 -20 -13 -11 -29 -20 -35 -20 -7 0 -15 -6 -18 -13 -3 -8 -26 -24
-51 -36 -25 -11 -46 -25 -46 -29 0 -5 -25 -21 -55 -37 -30 -15 -55 -31 -55
-36 0 -5 -23 -20 -50 -34 -28 -14 -50 -29 -50 -33 0 -7 -16 -17 -77 -47 -18
-8 -33 -19 -33 -24 0 -4 -17 -16 -37 -27 -21 -10 -45 -26 -53 -35 -8 -8 -35
-25 -60 -37 -25 -12 -56 -33 -69 -47 -13 -14 -30 -25 -38 -25 -7 0 -24 -10
-37 -22 -25 -24 -52 -42 -101 -67 -16 -8 -36 -23 -43 -33 -7 -10 -19 -18 -26
-18 -7 0 -24 -10 -38 -22 -26 -24 -55 -42 -100 -65 -14 -7 -29 -20 -32 -28 -3
-8 -12 -15 -21 -15 -16 0 -27 -8 -66 -43 -10 -9 -21 -17 -24 -17 -6 0 -78 -50
-85 -58 -3 -4 -22 -16 -43 -27 -20 -11 -37 -23 -37 -27 0 -5 -7 -8 -15 -8 -8
0 -15 -4 -15 -8 0 -4 -12 -15 -27 -24 -16 -9 -37 -25 -48 -35 -11 -10 -38 -29
-60 -42 -22 -13 -44 -29 -50 -35 -11 -12 -92 -66 -99 -66 -2 0 -18 -13 -35
-29 -18 -17 -42 -33 -54 -37 -12 -4 -28 -15 -35 -25 -7 -11 -19 -19 -26 -19
-7 0 -27 -13 -46 -30 -18 -16 -53 -39 -77 -51 -24 -11 -43 -25 -43 -30 0 -5
-18 -18 -39 -29 -22 -11 -44 -26 -48 -32 -4 -7 -28 -24 -53 -37 -25 -13 -56
-35 -69 -48 -13 -13 -29 -23 -35 -23 -7 0 -25 -13 -42 -28 -16 -16 -46 -39
-68 -52 -21 -12 -50 -34 -64 -46 -14 -13 -30 -24 -36 -24 -6 0 -24 -14 -39
-30 -16 -17 -35 -30 -42 -30 -8 0 -25 -11 -38 -24 -13 -13 -38 -31 -55 -40
-16 -8 -47 -31 -67 -51 -21 -19 -44 -35 -51 -35 -8 0 -19 -9 -26 -20 -16 -26
-28 -26 -28 0 0 11 -3 20 -8 20 -8 0 -52 91 -52 108 0 6 -6 15 -13 19 -14 9
-28 37 -52 105 -10 26 -23 49 -31 52 -8 3 -14 14 -14 24 0 10 -4 22 -9 28 -5
5 -14 26 -21 46 -6 21 -16 38 -21 38 -5 0 -9 7 -9 15 0 8 -4 15 -10 15 -5 0
-10 8 -10 19 0 27 -30 95 -46 104 -8 4 -14 16 -14 25 0 9 -7 30 -15 46 -8 15
-15 37 -15 47 0 11 -7 19 -15 19 -8 0 -15 7 -15 16 0 9 -6 30 -14 47 -7 18
-19 47 -26 64 -7 18 -16 33 -21 33 -5 0 -9 7 -9 15 0 8 -4 23 -9 33 -21 42
-41 94 -41 107 0 8 -6 15 -12 15 -7 0 -22 29 -33 65 -11 36 -25 65 -32 65 -7
0 -13 8 -13 18 0 9 -7 30 -15 46 -8 15 -15 35 -15 42 0 8 -4 14 -10 14 -5 0
-10 9 -10 20 0 11 -4 20 -9 20 -5 0 -15 20 -22 45 -7 25 -16 45 -20 45 -4 0
-9 14 -13 31 -3 18 -12 37 -19 43 -8 6 -22 37 -32 69 -11 31 -25 57 -32 57 -7
0 -13 10 -13 23 0 12 -7 31 -15 41 -12 16 -15 72 -15 320 0 282 -14 565 -29
576 -6 4 -36 206 -59 395 -2 22 -8 42 -12 45 -3 3 -19 95 -35 205 -15 110 -31
202 -36 205 -4 3 -10 28 -14 55 -3 28 -12 77 -20 110 -7 33 -16 86 -20 118 -3
31 -10 57 -15 57 -5 0 -12 17 -15 38 -3 20 -12 71 -20 112 -7 41 -17 94 -20
118 -4 23 -11 42 -16 42 -5 0 -9 8 -9 18 0 9 -11 62 -25 116 -14 54 -25 107
-25 117 0 11 -4 19 -10 19 -5 0 -10 11 -10 24 0 12 -4 36 -9 52 -5 16 -17 55
-26 87 -9 31 -20 57 -24 57 -4 0 -20 54 -36 120 -16 66 -33 120 -37 120 -4 0
-10 16 -14 35 -3 19 -10 37 -14 40 -5 3 -14 30 -20 60 -6 30 -15 55 -19 55 -7
0 -33 74 -57 163 -3 9 -9 17 -15 17 -5 0 -14 20 -20 45 -6 25 -15 45 -19 45
-5 0 -11 18 -15 40 -4 22 -10 40 -13 40 -9 0 -26 39 -48 108 -9 28 -20 52 -25
52 -4 0 -10 14 -14 31 -4 17 -13 42 -21 57 -8 15 -14 35 -14 44 0 9 -7 23 -14
31 -14 14 -51 105 -63 157 -4 14 -12 30 -19 35 -11 9 -32 57 -51 120 -4 11
-15 28 -25 39 -10 11 -18 27 -18 36 0 9 -9 26 -20 38 -11 12 -20 27 -20 34 0
7 -9 24 -20 38 -11 14 -20 33 -20 43 0 10 -6 20 -13 23 -8 3 -26 34 -42 69
-15 36 -32 65 -36 65 -5 0 -9 7 -9 15 0 8 -4 15 -10 15 -5 0 -10 8 -10 18 0
25 -30 85 -47 95 -7 4 -13 16 -13 26 0 9 -7 26 -15 37 -8 10 -15 27 -15 37 0
9 -7 17 -15 17 -8 0 -15 6 -15 13 0 6 -12 35 -25 62 -14 28 -25 53 -25 58 0 4
-9 16 -20 27 -11 11 -20 27 -20 36 0 8 -6 21 -12 28 -7 8 -20 24 -28 36 -8 12
-23 33 -32 45 -10 13 -18 28 -18 34 0 6 -5 11 -11 11 -12 0 -69 55 -69 67 0
12 -74 33 -117 33 -21 0 -47 -6 -58 -12z m145 -305 c0 -7 6 -16 13 -20 13 -8
67 -115 67 -132 0 -5 6 -11 13 -14 6 -2 21 -28 32 -56 11 -28 25 -51 32 -51 7
0 13 -7 13 -16 0 -9 7 -30 16 -47 29 -56 34 -67 34 -77 0 -5 9 -19 20 -30 11
-11 20 -29 20 -40 0 -11 5 -20 10 -20 6 0 10 -6 10 -14 0 -8 6 -21 14 -29 8
-8 27 -42 42 -76 15 -33 30 -61 34 -61 3 0 12 -16 20 -35 8 -19 17 -35 22 -35
4 0 8 -9 8 -19 0 -11 8 -27 17 -37 18 -18 36 -60 55 -126 6 -21 14 -38 19 -38
4 0 14 -19 20 -42 7 -24 19 -52 26 -63 7 -11 13 -28 13 -39 0 -10 7 -24 15
-30 9 -6 22 -35 29 -63 8 -29 21 -59 29 -68 9 -8 19 -29 22 -47 4 -18 11 -37
15 -43 4 -5 11 -25 15 -42 3 -18 11 -33 15 -33 5 0 18 -27 28 -61 10 -33 26
-69 35 -80 9 -10 17 -26 17 -34 0 -9 6 -26 14 -38 8 -12 19 -46 25 -76 6 -30
17 -59 25 -65 7 -6 23 -46 35 -90 12 -43 28 -84 35 -91 7 -7 23 -55 35 -106
13 -52 26 -96 30 -99 10 -8 53 -151 58 -197 3 -24 8 -43 12 -43 4 0 20 -55 36
-122 16 -68 33 -126 38 -129 4 -3 12 -34 17 -69 5 -35 14 -84 19 -109 6 -25
13 -67 16 -93 4 -27 10 -48 15 -48 5 0 11 -21 15 -47 3 -27 12 -77 20 -113 7
-36 16 -85 20 -110 3 -24 10 -47 15 -50 6 -4 19 -78 31 -166 11 -87 23 -179
26 -204 3 -25 10 -48 15 -51 6 -4 16 -53 24 -110 7 -57 18 -133 23 -169 6 -36
11 -86 11 -112 0 -27 4 -48 9 -48 8 0 29 -164 38 -307 4 -55 2 -83 -5 -83 -6
0 -14 20 -18 45 -4 27 -12 45 -19 45 -8 0 -16 17 -20 40 -4 22 -10 40 -15 40
-5 0 -11 18 -15 39 -4 22 -13 42 -21 45 -8 3 -14 13 -14 23 0 10 -7 31 -15 46
-8 15 -17 43 -21 62 -3 19 -12 35 -19 35 -7 0 -16 19 -19 45 -4 25 -11 45 -16
45 -4 0 -11 18 -15 40 -4 22 -12 40 -18 40 -7 0 -21 30 -32 66 -11 37 -28 76
-37 87 -10 11 -18 28 -18 38 0 10 -4 20 -9 23 -5 3 -14 27 -20 52 -7 25 -18
52 -26 60 -7 7 -16 32 -20 54 -4 22 -10 40 -15 40 -4 0 -11 17 -15 37 -4 20
-12 42 -19 48 -6 5 -23 44 -36 85 -14 41 -28 77 -32 78 -5 2 -8 12 -8 22 0 10
-4 22 -10 25 -5 3 -10 14 -10 23 0 9 -7 30 -15 46 -8 15 -15 37 -15 47 0 11
-4 19 -10 19 -5 0 -10 7 -10 15 0 8 -4 15 -9 15 -4 0 -11 16 -14 36 -7 42 -29
94 -39 94 -5 0 -8 8 -8 19 0 10 -7 35 -15 55 -8 19 -20 58 -26 86 -6 27 -14
50 -18 50 -8 0 -23 42 -45 132 -8 32 -21 65 -30 73 -9 9 -16 23 -16 30 0 41
-23 115 -36 115 -8 0 -14 8 -14 17 0 27 -31 147 -41 157 -5 6 -9 18 -9 28 0
10 -4 18 -9 18 -6 0 -13 20 -17 45 -3 25 -10 45 -14 45 -4 0 -13 26 -20 58 -7
31 -15 59 -19 62 -9 6 -47 123 -56 173 -4 20 -11 37 -16 37 -5 0 -9 8 -9 18 0
10 -4 22 -9 28 -5 5 -17 44 -26 87 -9 42 -20 77 -25 77 -4 0 -10 19 -14 43
-10 63 -47 211 -55 217 -4 3 -20 59 -36 125 -16 66 -32 122 -35 125 -4 3 -19
66 -34 140 -15 74 -32 137 -36 140 -8 5 -32 122 -57 280 -4 19 -10 37 -14 40
-13 9 -49 300 -49 399 0 86 1 93 15 75 8 -10 15 -24 15 -31z m4495 -1943 c15
-6 33 -16 40 -23 7 -6 27 -23 44 -36 17 -13 31 -30 31 -37 0 -8 7 -17 15 -21
9 -3 25 -22 35 -43 11 -21 25 -44 33 -51 17 -18 32 -59 52 -144 10 -38 22 -73
29 -77 17 -11 16 -590 -1 -595 -7 -3 -13 -19 -13 -36 0 -18 -12 -59 -25 -92
-14 -33 -25 -66 -25 -72 0 -7 -4 -13 -10 -13 -5 0 -21 -22 -35 -50 -14 -27
-29 -50 -33 -50 -4 0 -13 -14 -20 -30 -18 -39 -63 -84 -102 -102 -16 -7 -30
-16 -30 -20 0 -5 -4 -8 -9 -8 -4 0 -16 28 -26 63 -9 34 -20 64 -24 67 -4 3
-20 50 -35 105 -16 55 -31 102 -35 105 -6 5 -33 98 -54 190 -6 25 -14 47 -18
50 -3 3 -9 21 -12 40 -3 19 -10 67 -16 105 -18 117 -30 385 -21 475 8 88 36
190 51 190 5 0 9 6 9 13 0 11 29 45 64 75 37 31 95 40 141 22z m3865 -2288
c-13 -9 -32 -24 -40 -32 -9 -9 -34 -29 -55 -45 -22 -17 -44 -36 -48 -42 -4 -7
-13 -13 -20 -13 -7 0 -26 -16 -42 -35 -17 -19 -34 -35 -38 -35 -13 0 -70 -43
-95 -72 -13 -16 -28 -28 -34 -28 -9 0 -27 -15 -104 -87 -19 -18 -39 -33 -45
-33 -5 0 -27 -17 -48 -37 -21 -21 -51 -45 -67 -53 -16 -8 -39 -27 -52 -42 -13
-16 -30 -28 -37 -28 -8 0 -18 -6 -22 -13 -4 -7 -26 -26 -48 -42 -22 -17 -44
-36 -48 -42 -4 -7 -14 -13 -22 -13 -7 0 -24 -12 -37 -27 -13 -16 -34 -34 -48
-41 -14 -7 -45 -31 -69 -52 -25 -22 -50 -40 -57 -40 -7 0 -22 -13 -34 -30 -12
-16 -27 -30 -34 -30 -7 0 -29 -15 -49 -32 -77 -71 -152 -128 -166 -128 -6 0
-15 -9 -21 -20 -6 -11 -23 -26 -38 -34 -24 -13 -42 -27 -120 -96 -12 -11 -25
-20 -28 -20 -4 0 -19 -10 -34 -22 -15 -13 -45 -36 -65 -53 -21 -16 -52 -42
-69 -57 -17 -16 -36 -28 -43 -28 -7 0 -22 -13 -35 -30 -12 -16 -27 -30 -34
-30 -6 0 -31 -18 -54 -39 -24 -22 -55 -45 -69 -52 -14 -7 -36 -26 -49 -41 -13
-15 -29 -28 -36 -28 -6 0 -28 -15 -48 -32 -59 -54 -89 -78 -97 -78 -4 0 -18
-11 -31 -25 -13 -14 -27 -25 -31 -25 -4 0 -23 -13 -41 -30 -18 -16 -38 -30
-44 -30 -6 0 -19 -11 -28 -25 -9 -14 -22 -25 -29 -25 -7 0 -26 -13 -43 -28
-16 -16 -46 -38 -67 -51 -20 -13 -50 -35 -66 -49 -46 -43 -90 -76 -111 -84
-10 -4 -26 -18 -36 -32 -9 -15 -22 -26 -30 -26 -7 0 -26 -16 -41 -35 -15 -19
-32 -35 -36 -35 -10 0 -60 -36 -99 -72 -17 -14 -45 -38 -63 -53 -18 -15 -49
-42 -69 -59 -120 -102 -162 -136 -171 -136 -3 0 -18 -13 -32 -30 -13 -16 -31
-30 -39 -30 -8 0 -14 -5 -14 -11 0 -12 -40 -48 -55 -49 -5 0 -21 -14 -34 -30
-13 -17 -27 -30 -32 -30 -11 0 -49 -37 -49 -47 0 -5 -18 -19 -40 -33 -22 -13
-40 -30 -40 -37 0 -7 -5 -13 -12 -13 -12 0 -13 -1 -98 -80 -30 -29 -60 -55
-66 -58 -22 -13 -118 -97 -148 -130 -16 -17 -35 -32 -42 -32 -6 0 -23 -15 -38
-34 -14 -19 -35 -38 -47 -41 -11 -4 -24 -18 -29 -31 -6 -14 -18 -27 -27 -31
-10 -4 -48 -36 -84 -72 -37 -36 -99 -95 -139 -131 -153 -138 -176 -159 -232
-217 -25 -26 -59 -57 -74 -68 -15 -11 -43 -35 -61 -52 -18 -18 -36 -33 -40
-33 -4 0 -21 -16 -36 -35 -15 -19 -34 -35 -42 -35 -8 0 -15 -4 -15 -10 0 -12
-32 -50 -41 -50 -4 0 -53 -45 -109 -100 -56 -55 -106 -100 -111 -100 -5 0 -9
7 -9 15 0 14 -48 113 -60 125 -14 12 -50 82 -50 96 0 8 -9 22 -20 31 -11 10
-20 25 -20 35 0 9 -4 19 -9 23 -5 3 -12 19 -16 35 -4 16 -12 33 -18 37 -12 8
-20 22 -53 98 -10 22 -24 45 -30 50 -7 6 -22 35 -35 65 -13 30 -26 57 -30 60
-14 11 -49 76 -49 93 0 10 -6 20 -14 23 -8 3 -18 19 -21 35 -4 16 -11 29 -16
29 -5 0 -9 7 -9 15 0 15 -19 54 -31 65 -7 7 -49 98 -49 108 0 5 12 15 28 23
15 8 35 21 45 30 10 9 37 25 60 35 23 10 51 27 61 36 11 10 26 18 33 18 7 0
13 5 13 10 0 6 9 10 20 10 10 0 27 8 37 17 10 10 40 29 68 43 27 14 54 30 60
36 5 5 35 21 65 34 30 14 58 30 62 36 4 6 31 21 60 34 29 12 55 26 58 30 3 4
30 20 60 36 30 15 59 34 63 41 4 7 14 13 22 13 20 0 95 40 117 62 10 10 24 18
32 18 18 0 74 30 97 52 10 10 34 24 54 32 19 8 35 20 35 25 0 6 6 11 14 11 21
0 116 49 116 60 0 5 12 13 27 16 15 4 34 13 41 21 7 7 22 13 33 13 10 0 19 7
19 15 0 8 6 15 13 15 14 0 110 49 117 61 3 4 26 17 51 27 25 11 52 26 60 33
21 20 78 49 95 49 8 0 22 8 32 18 24 22 80 52 98 52 8 0 22 8 32 18 22 22 97
62 117 62 8 0 18 6 22 13 10 16 88 57 108 57 8 0 15 6 15 13 0 6 21 21 47 31
25 11 54 26 62 35 19 18 102 61 119 61 6 0 15 6 19 13 9 13 94 57 112 57 6 0
11 6 11 13 0 12 87 57 110 57 5 0 13 6 17 13 4 7 33 26 63 41 30 16 57 32 60
35 3 4 31 19 63 34 31 15 57 31 57 37 0 5 5 10 11 10 19 0 119 50 119 59 0 5
14 12 30 16 17 4 30 11 30 16 0 5 9 9 20 9 11 0 28 8 39 19 10 10 30 21 45 25
14 3 26 10 26 15 0 5 14 12 31 16 17 4 33 13 35 20 3 7 36 25 75 40 38 16 69
32 69 37 0 9 101 58 119 58 6 0 11 4 11 9 0 11 95 61 115 61 7 0 15 6 18 13 3
8 30 25 61 38 31 13 56 30 56 37 0 6 7 12 15 12 17 0 98 41 103 51 2 4 29 20
60 36 31 15 62 33 67 39 6 5 29 19 52 30 24 10 43 25 43 32 0 6 5 12 11 12 16
0 96 38 111 53 7 7 38 26 68 43 30 16 63 37 74 46 10 9 31 20 45 23 15 3 33
15 41 25 8 11 20 20 26 20 12 0 106 48 114 59 9 11 68 41 82 41 7 0 20 9 28
20 8 11 20 20 27 20 7 0 13 5 13 10 0 6 7 10 16 10 18 0 69 27 95 50 10 8 40
24 68 35 28 11 51 23 51 26 0 4 20 17 45 29 25 12 51 27 58 34 7 6 39 24 72
40 33 17 65 35 70 42 6 6 36 22 68 34 31 13 57 27 57 32 0 4 26 20 57 35 32
15 66 36 75 46 10 9 26 17 36 17 9 0 26 7 36 15 11 8 22 15 25 14 3 0 -5 -8
-19 -17z m-5960 -2916 c0 -6 4 -16 9 -21 4 -6 17 -35 27 -65 10 -30 25 -60 33
-66 28 -22 5 -57 -55 -84 -30 -13 -59 -29 -62 -36 -4 -6 -32 -24 -62 -40 -30
-16 -57 -32 -60 -35 -8 -11 -102 -59 -115 -59 -7 0 -15 -6 -18 -14 -3 -8 -26
-24 -51 -35 -25 -11 -46 -24 -46 -29 0 -6 -12 -15 -27 -21 -32 -11 -81 -40
-100 -57 -7 -7 -33 -22 -58 -34 -25 -12 -45 -25 -45 -29 0 -4 -27 -21 -60 -37
-33 -16 -60 -32 -60 -35 0 -4 -24 -19 -52 -34 -29 -15 -55 -31 -58 -35 -3 -4
-27 -19 -55 -35 -27 -15 -52 -30 -55 -34 -3 -3 -30 -19 -60 -36 -30 -16 -64
-37 -74 -47 -11 -10 -27 -18 -37 -18 -9 0 -22 -7 -29 -15 -7 -8 -21 -15 -31
-15 -11 0 -19 -6 -19 -13 0 -7 -20 -21 -45 -32 -25 -10 -49 -23 -53 -29 -4 -6
-29 -22 -57 -36 -27 -14 -60 -35 -73 -47 -13 -12 -36 -24 -51 -28 -16 -3 -38
-15 -49 -25 -12 -11 -26 -20 -32 -20 -5 0 -10 -4 -10 -10 0 -5 -7 -10 -15 -10
-15 0 -64 -27 -75 -41 -3 -4 -30 -19 -60 -35 -30 -15 -56 -31 -58 -36 -2 -4
-24 -17 -50 -29 -26 -12 -55 -31 -65 -41 -10 -10 -27 -18 -37 -18 -11 0 -20
-4 -20 -9 0 -5 -8 -12 -17 -15 -15 -6 -15 -4 2 14 10 11 22 20 27 20 5 0 21
14 35 30 13 17 29 30 35 30 5 0 24 15 42 33 53 52 83 77 94 77 6 0 22 14 35
30 14 17 30 30 35 30 5 0 17 9 27 20 10 11 22 20 27 20 5 0 21 11 36 24 82 75
99 89 124 102 15 8 32 23 38 34 6 11 15 20 21 20 12 0 63 35 104 73 16 15 38
30 48 33 9 3 17 9 17 14 0 4 20 20 45 34 25 15 45 31 45 36 0 5 15 16 33 25
19 9 53 33 77 55 24 22 49 40 55 40 6 0 21 14 33 30 13 17 28 30 35 30 7 0 26
12 43 28 68 60 127 108 152 122 14 8 37 27 50 43 13 15 30 27 37 27 8 0 18 6
22 14 4 7 27 25 51 40 23 14 42 31 42 36 0 6 5 10 12 10 6 0 26 11 44 25 18
14 37 25 43 25 6 0 11 6 11 13 0 6 18 21 40 31 22 11 47 30 55 43 9 12 21 23
28 23 6 0 30 16 52 35 22 19 54 42 72 50 18 9 33 20 33 25 0 5 19 20 42 34
l42 25 23 -25 c13 -14 23 -31 23 -38z"/>
</g>
</svg>
